<svg xmlns="http://www.w3.org/2000/svg" viewBox="0 0 24 24"><path fill="#1DB954" d="M12 1.5A10.5 10.5 0 1 0 22.5 12 10.51 10.51 0 0 0 12 1.5zM17 16.9a.75.75 0 0 1-1.02.26 11.9 11.9 0 0 0-7.92-1.08.75.75 0 1 1-.36-1.46 13.4 13.4 0 0 1 8.94 1.22c.36.2.5.65.27 1.02zm1.44-3.18a.9.9 0 0 1-1.22.31 14.9 14.9 0 0 0-9.9-1.36.9.9 0 1 1-.38-1.76c4.05-.87 8.45-.33 12.06 1.58.43.22.6.75.34 1.23zM18.6 10a1.05 1.05 0 0 1-1.43.37 16.7 16.7 0 0 0-11.02-1.52A1.05 1.05 0 1 1 5 7.5c4.66-.67 9.68-.25 13.8 1.69.52.24.74.86.4 1.37z"/></svg>